<?xml version="1.0" standalone="no"?>
<!DOCTYPE svg PUBLIC "-//W3C//DTD SVG 20010904//EN"
 "http://www.w3.org/TR/2001/REC-SVG-20010904/DTD/svg10.dtd">
<svg version="1.0" xmlns="http://www.w3.org/2000/svg"
 width="260.000000pt" height="260.000000pt" viewBox="0 0 260.000000 260.000000"
 preserveAspectRatio="xMidYMid meet">
<metadata>
Created by potrace 1.11, written by Peter Selinger 2001-2013
</metadata>
<g transform="translate(0.000000,260.000000) scale(0.100000,-0.100000)"
fill="#000000" stroke="none">
<path d="M1275 2013 c-111 -21 -265 -71 -265 -87 0 -2 19 1 43 6 43 10 214 13
255 4 127 -27 246 -77 322 -134 145 -109 253 -257 280 -387 20 -90 19 -89 77
-50 44 29 50 38 47 63 -4 38 -51 167 -75 206 -25 42 -24 47 9 36 111 -41 174
-103 165 -165 -10 -74 -111 -165 -271 -245 -77 -38 -240 -104 -243 -97 -1 1
-2 16 -3 34 -1 26 1 30 12 21 19 -17 32 8 30 57 -2 58 -13 75 -51 75 -27 1
-29 2 -14 11 38 22 4 79 -35 58 -21 -11 -24 -39 -6 -57 9 -9 6 -12 -14 -12
-18 0 -34 10 -48 30 -22 31 -44 38 -56 19 -7 -12 63 -89 82 -89 7 0 11 -28 10
-87 l-1 -88 -49 -12 c-27 -7 -68 -14 -90 -15 l-41 -3 -1 173 -1 172 34 -26
c32 -24 36 -25 52 -10 10 9 20 15 22 14 3 -2 -10 11 -27 27 -19 18 -39 52 -49
85 -22 69 -33 83 -62 77 -28 -5 -28 -3 -1 33 l22 30 -21 28 c-25 33 -47 38
-78 18 -32 -21 -34 -70 -5 -88 28 -18 25 -25 -11 -25 -36 0 -43 -9 -64 -80
-11 -36 -24 -58 -46 -74 l-30 -21 21 -20 c21 -20 21 -20 55 7 l35 26 0 -185
c0 -103 -3 -186 -7 -186 -5 -1 -47 -3 -94 -6 l-86 -6 -1 56 c0 31 4 53 9 50
21 -12 25 9 13 66 l-12 61 44 41 c44 41 56 68 30 68 -8 0 -27 -13 -43 -30 -33
-36 -82 -43 -61 -10 16 24 0 55 -27 55 -27 0 -43 -31 -28 -54 11 -17 10 -21
-6 -26 -10 -3 -28 -29 -40 -58 -20 -47 -20 -53 -6 -63 9 -7 15 -20 13 -31 -2
-10 2 -17 10 -16 13 3 13 1 16 -66 l2 -44 -110 6 c-287 14 -430 113 -360 249
16 32 86 103 116 119 19 10 20 9 13 -7 -22 -49 -11 -258 14 -287 8 -9 114 -37
140 -37 16 0 15 8 -15 83 -67 168 -62 335 16 507 l30 65 -33 -39 c-47 -56
-105 -154 -125 -210 -15 -42 -26 -54 -92 -98 -191 -127 -251 -239 -181 -337
34 -48 167 -106 311 -135 14 -3 33 -19 43 -36 57 -96 205 -211 324 -251 91
-31 272 -34 380 -5 81 22 228 88 178 80 -286 -44 -468 -9 -637 124 -63 49 -70
62 -35 62 180 3 349 23 597 71 105 20 264 71 374 118 27 12 50 20 52 18 7 -7
-29 -125 -51 -164 -28 -51 -20 -55 22 -10 43 44 89 121 108 177 14 42 24 53
94 98 90 59 176 148 186 192 25 114 -75 208 -276 259 -67 17 -75 22 -103 62
-76 111 -199 200 -346 249 -61 20 -220 34 -275 23z"/>
</g>
</svg>
